<?xml version="1.0" encoding="UTF-8"?><svg id="Layer_2" xmlns="http://www.w3.org/2000/svg" viewBox="0 0 395.84 99.59"><defs><style>.cls-1{fill:#ff6000;stroke-width:0px;}</style></defs><g id="guide"><path class="cls-1" d="M97.56,23.3h31.15l-31.15,19.49v-19.49ZM58.88,64.35h38.68v12.57h-44.96v-34.13l-31.15-19.49h37.43v41.05ZM179.23,40.76h9.76v16.65h9.13V21.45h-9.13v12.22h-9.76v-9.61h-29.07v26.38h29.07v-9.68ZM170.3,42.87h-11.21v-11.24h11.21v11.24ZM185.68,60.7l14.45,10.49-5,6.95-14.45-10.49c-1.11-.83-2.09-1.67-2.92-2.5-.83.83-1.81,1.67-2.92,2.5l-14.45,10.49-5-6.95,14.45-10.49c2.99-2.15,3.27-3.13,3.27-4.31v-2.31h9.24v2.31c0,1.18.35,2.15,3.34,4.31ZM228.47,46.02l11.88,16.62-6.82,4.91-11.88-16.62c-.27-.34-.48-.68-.68-.96-.2.27-.41.61-.68.96l-11.88,16.62-6.82-4.91,11.88-16.62c2.66-3.75,3.07-5.12,3.07-7.92v-14.04h8.87v14.04c0,2.8.41,4.16,3.07,7.92ZM251.77,42.79h8.29v7.73h-8.29v27.63h-9.13V21.45h9.13v21.34ZM325.48,59.07h40.61v19.07h-9.13v-11.54h-31.48v-7.54ZM374.39,35.77v7.73h-8.29v13.28h-9.13V21.45h9.13v14.32h8.29ZM350.75,40.99c-.03-2.67-.69-5.11-1.86-7.2h4.27v-7.54h-13.1v-4.8h-9.01v4.8h-13.1v7.54h4.15c-1.12,2.08-1.74,4.51-1.74,7.2.09,8.42,6.46,14.57,15.16,14.57s15.22-5.99,15.23-14.57ZM328.78,40.99c0-4.36,2.66-7.18,6.77-7.2,4.11.02,6.77,2.85,6.77,7.2,0,4.36-2.66,7.18-6.77,7.2-4.11-.02-6.77-2.85-6.77-7.2ZM272.6,59.07h15.19v7.54h-24.12V25.46h22.88v7.54h-13.95v26.07ZM303.72,21.45h8.54v56.69h-8.54v-28.23h-4.17v25.8h-8.35V22.15h8.35v20.04h4.17v-20.74Z"/></g></svg>